<svg xmlns="http://www.w3.org/2000/svg" version="1.1" xmlns:xlink="http://www.w3.org/1999/xlink" xmlns:svgjs="http://svgjs.com/svgjs" width="1920" height="1080" preserveAspectRatio="none" viewBox="0 0 1920 1080"><g mask="url(&quot;#SvgjsMask1030&quot;)" fill="none"><rect width="1920" height="1080" x="0" y="0" fill="rgba(255, 255, 255, 1)"></rect><path d="M8 1080L1088 0L1671.5 0L591.5 1080z" fill="url(#SvgjsLinearGradient1031)"></path><path d="M747.6 1080L1827.6 0L2003.1 0L923.1 1080z" fill="url(#SvgjsLinearGradient1031)"></path><path d="M1830 1080L750 0L100.5 0L1180.5 1080z" fill="url(#SvgjsLinearGradient1032)"></path><path d="M1190.4 1080L110.40000000000009 0L-636.5999999999999 0L443.4000000000001 1080z" fill="url(#SvgjsLinearGradient1032)"></path><path d="M945.1111184116 1080L1920 105.11111841160005L1920 1080z" fill="url(#SvgjsLinearGradient1031)"></path><path d="M0 1080L974.8888815884 1080L 0 105.11111841160005z" fill="url(#SvgjsLinearGradient1032)"></path></g><defs><mask id="SvgjsMask1030"><rect width="1920" height="1080" fill="#ffffff"></rect></mask><linearGradient x1="0%" y1="100%" x2="100%" y2="0%" id="SvgjsLinearGradient1031"><stop stop-color="rgba(0, 0, 0, 0.28)" offset="0"></stop><stop stop-opacity="0" stop-color="rgba(0, 0, 0, 0.28)" offset="0.66"></stop></linearGradient><linearGradient x1="100%" y1="100%" x2="0%" y2="0%" id="SvgjsLinearGradient1032"><stop stop-color="rgba(0, 0, 0, 0.28)" offset="0"></stop><stop stop-opacity="0" stop-color="rgba(0, 0, 0, 0.28)" offset="0.66"></stop></linearGradient></defs></svg>